<svg width="166" height="40" viewBox="0 0 166 40" fill="none" xmlns="http://www.w3.org/2000/svg">
<g id="Press logo" clip-path="url(#clip0_138_944)">
<g id="Vector">
<path d="M27.2113 28.4021V10.3218C27.2113 9.38119 27.4197 8.67574 27.8625 8.20545C28.2793 7.73515 28.8523 7.5 29.5296 7.5C30.2329 7.5 30.8059 7.73515 31.2227 8.20545C31.6655 8.67574 31.8738 9.38119 31.8738 10.3218V28.4021C31.8738 29.3427 31.6655 30.0743 31.2227 30.5446C30.7799 31.0149 30.2329 31.25 29.5296 31.25C28.8523 31.25 28.3053 31.0149 27.8886 30.5446C27.4458 30.0481 27.2113 29.3427 27.2113 28.4021Z" fill="#F9FAFB"/>
<path d="M153.255 31.2239C146.743 31.2239 141.43 25.8938 141.43 19.3619C141.43 12.83 146.743 7.5 153.255 7.5C159.767 7.5 165.081 12.83 165.081 19.3619C165.081 25.92 159.793 31.2239 153.255 31.2239ZM153.255 12.3075C149.374 12.3075 146.223 15.4689 146.223 19.3619C146.223 23.2549 149.374 26.4164 153.255 26.4164C157.136 26.4164 160.288 23.2549 160.288 19.3619C160.288 15.495 157.136 12.3075 153.255 12.3075Z" fill="#F9FAFB"/>
<path d="M100.196 31.2239C93.6846 31.2239 88.3709 25.8938 88.3709 19.3619C88.3709 12.83 93.6846 7.5 100.196 7.5C106.708 7.5 112.022 12.83 112.022 19.3619C112.022 25.92 106.708 31.2239 100.196 31.2239ZM100.196 12.3075C96.3154 12.3075 93.1636 15.4689 93.1636 19.3619C93.1636 23.2549 96.3154 26.4164 100.196 26.4164C104.078 26.4164 107.229 23.2549 107.229 19.3619C107.229 15.495 104.078 12.3075 100.196 12.3075Z" fill="#F9FAFB"/>
<path d="M137.653 19.3619C137.653 16.7492 136.793 14.3193 135.361 12.3597C133.277 9.51183 129.943 7.63064 126.166 7.5C126.036 7.5 125.931 7.5 125.801 7.5H119.862C118.846 7.5 118.117 7.73515 117.674 8.20545C117.231 8.67574 116.997 9.40732 116.997 10.4524V28.2976C116.997 29.3427 117.231 30.0743 117.674 30.5446C118.117 31.0149 118.872 31.25 119.862 31.25H125.801C125.931 31.25 126.036 31.25 126.166 31.25C129.943 31.1455 133.251 29.2643 135.361 26.3903C136.793 24.4046 137.653 21.9747 137.653 19.3619ZM126.661 26.3641C126.088 26.3903 125.463 26.4164 124.811 26.4164H121.712V12.3075H124.811C125.463 12.3075 126.088 12.3075 126.661 12.3597C128.718 12.5949 130.49 13.7445 131.61 15.3644C132.391 16.4879 132.86 17.8727 132.86 19.3619C132.86 20.8512 132.391 22.2098 131.61 23.3333C130.49 25.0055 128.718 26.129 126.661 26.3641Z" fill="#F9FAFB"/>
<path d="M81.6766 7.60445C80.8171 7.34317 79.8793 7.68283 79.3844 8.44053L72.2474 19.3357L65.1104 8.44053C64.6155 7.68283 63.6778 7.34317 62.8182 7.60445C61.9587 7.86572 61.3596 8.70181 61.3596 9.61627V28.9768C61.3596 30.1264 62.2712 31.0932 63.4173 31.0932C64.5374 31.0932 65.4751 30.1526 65.4751 28.9768V16.514L70.5283 24.2477C70.5283 24.2477 70.5283 24.2477 70.5283 24.2739C70.5283 24.2739 70.5283 24.3 70.5543 24.3C70.5804 24.3522 70.6064 24.4045 70.6585 24.4306C70.6846 24.4568 70.6846 24.4568 70.7106 24.4829C70.7367 24.509 70.7627 24.5613 70.7888 24.5874C70.8148 24.6135 70.8409 24.6396 70.8669 24.6658C70.893 24.6919 70.919 24.6919 70.919 24.718C70.9711 24.7442 70.9972 24.7703 71.0492 24.8225L71.0753 24.8487C71.1274 24.8748 71.1795 24.9009 71.2055 24.927C71.2316 24.927 71.2316 24.9532 71.2316 24.9532C71.2576 24.9793 71.3097 24.9793 71.3358 25.0054C71.5442 25.1099 71.7525 25.1622 71.987 25.1883C72.0391 25.1883 72.0651 25.1883 72.1172 25.1883C72.1432 25.1883 72.1693 25.1883 72.1953 25.1883C72.2214 25.1883 72.2474 25.1883 72.2735 25.1883C72.3256 25.1883 72.3516 25.1883 72.4037 25.1883C72.6121 25.1622 72.8465 25.1099 73.0549 25.0054C73.081 24.9793 73.133 24.9793 73.1591 24.9532L73.1851 24.927C73.2372 24.9009 73.2893 24.8748 73.3154 24.8487C73.3414 24.8487 73.3414 24.8225 73.3414 24.8225C73.3935 24.7964 73.4196 24.7703 73.4717 24.718C73.4977 24.6919 73.5238 24.6919 73.5238 24.6658C73.5498 24.6396 73.5759 24.6135 73.6019 24.5874C73.6279 24.5613 73.654 24.5351 73.68 24.4829C73.7061 24.4568 73.7061 24.4568 73.7321 24.4306C73.7582 24.3784 73.8103 24.3522 73.8363 24.3L73.8624 24.2739C73.8624 24.2739 73.8624 24.2739 73.8624 24.2477L78.9156 16.514V28.9768C78.9156 30.1264 79.8273 31.0932 80.9733 31.0932C82.0934 31.0932 83.0311 30.1526 83.0311 28.9768V9.61627C83.1353 8.70181 82.5362 7.86572 81.6766 7.60445Z" fill="#F9FAFB"/>
<path d="M54.3789 30.5184H39.0369C38.2294 30.5184 37.3438 30.022 37.0052 29.2382C36.6666 28.4543 36.6145 27.3831 37.3177 26.5209L49.8466 11.9156H39.4797C38.3596 11.9156 37.4219 10.9227 37.4219 9.72085C37.4219 8.51898 38.3336 7.76128 39.4797 7.76128H53.4411C54.2486 7.76128 55.0821 7.89191 55.8115 8.70187C56.4887 9.43344 56.4366 11.0272 55.7073 11.9678L43.5952 26.129H54.3789C55.525 26.129 56.3324 27.1218 56.3324 28.3237C56.3324 29.5256 55.525 30.5184 54.3789 30.5184Z" fill="#F9FAFB"/>
<path d="M11.9474 31.2239C8.53522 31.2239 5.46161 29.8652 3.24757 27.4092C1.32006 25.2668 0.200012 22.4189 0.200012 19.5971C0.200012 10.7921 7.49332 7.5 12.1037 7.5C16.636 7.5 19.944 9.72085 20.1003 9.82536C21.1162 10.5308 21.4027 11.9156 20.6994 12.9607C20.0222 14.0058 18.6417 14.267 17.6258 13.5877C17.5737 13.5616 15.2034 12.0201 12.1037 12.0201C9.21246 12.0201 5.22718 13.9274 5.22718 19.5971C5.22718 22.8108 7.62356 26.6254 11.9995 26.6254C14.4741 26.6254 16.1932 25.9722 17.2091 25.319V21.9747H13.8229C12.5986 21.9747 11.6088 20.9557 11.6088 19.7277C11.6088 18.4736 12.5986 17.4807 13.8229 17.4807H19.4752C20.6994 17.4807 21.6892 18.4997 21.6892 19.7277V26.4425C21.6892 27.0434 21.4548 27.6444 21.012 28.0624C19.5273 29.5256 16.2453 31.2239 11.9474 31.2239Z" fill="#F9FAFB"/>
</g>
</g>
<defs>
<clipPath id="clip0_138_944">
<rect width="165" height="40" fill="white" transform="translate(0.200012)"/>
</clipPath>
</defs>
</svg>
